<?xml version="1.0" encoding="utf-8"?>
<!-- Generator: Adobe Illustrator 23.0.0, SVG Export Plug-In . SVG Version: 6.00 Build 0)  -->
<svg version="1.1" id="图层_1" xmlns="http://www.w3.org/2000/svg" xmlns:xlink="http://www.w3.org/1999/xlink" x="0px" y="0px"
	 viewBox="0 0 81.5 81.5" style="enable-background:new 0 0 81.5 81.5;" xml:space="preserve">
<style type="text/css">
	.st0{fill:#FFFFFF;}
	.st1{fill:#E0E0E0;}
	.st2{fill:none;}
	.st3{fill:#5883B2;}
	.st4{fill:#ED7474;}
</style>
<title>未标题-5</title>
<g>
	<path class="st0" d="M40.8,80c-3.3,0-6.5-0.4-9.7-1.2c-10-2.5-18.8-9.1-24.1-18c-5.3-8.9-6.9-19.7-4.3-29.7
		c4.4-17.4,20.1-29.6,38-29.6c3.3,0,6.5,0.4,9.7,1.2c10,2.5,18.8,9.1,24.1,18c5.3,8.9,6.9,19.7,4.3,29.7C74.3,67.8,58.7,80,40.8,80
		C40.8,80,40.8,80,40.8,80z"/>
	<path class="st1" d="M40.7,3C43.8,3,47,3.4,50,4.2c9.6,2.4,18.1,8.7,23.2,17.3c5.1,8.5,6.6,19,4.1,28.6
		C73.1,66.8,58,78.5,40.8,78.5c-3.1,0-6.3-0.4-9.3-1.2C21.8,74.9,13.4,68.6,8.3,60c-5.1-8.5-6.6-19-4.1-28.6C8.4,14.7,23.4,3,40.7,3
		 M40.7,0C22.5,0,5.9,12.3,1.2,30.7c-2.7,10.5-1.1,21.6,4.5,30.9c5.5,9.3,14.5,16,25,18.7c3.4,0.9,6.8,1.3,10.1,1.3
		c18.2,0,34.8-12.3,39.5-30.7c2.7-10.5,1.1-21.6-4.5-30.9c-5.5-9.3-14.5-16-25-18.7C47.4,0.4,44,0,40.7,0L40.7,0z"/>
</g>
<line class="st2" x1="73.6" y1="16.6" x2="73.6" y2="16.6"/>
<path class="st1" d="M72.5,49.3c-1.1-0.6-2.4-0.9-3.6-0.9c-1.4,0-2.6-1.1-2.7-2.5c0-0.2,0-0.3,0-0.5c0.3-1.5,0.4-3.1,0.4-4.7
	c0-11-6.9-20.8-17.2-24.4c-1.3-0.5-2-1.9-1.6-3.3c0.1-0.1,0.1-0.3,0.2-0.4c1-1.8,1.3-3.8,0.9-5.8c-0.7-3.6-3.6-6.3-7.3-6.8
	c-4.6-0.6-8.8,2.8-9.4,7.4c0,0.3-0.1,0.7-0.1,1c0,1.5,0.4,2.9,1.1,4.1c0.7,1.2,0.3,2.8-0.9,3.6c-0.1,0.1-0.3,0.2-0.4,0.2
	C21.7,20,14.8,29.8,14.8,40.7c0,1.6,0.1,3.1,0.4,4.7c0.2,1.4-0.7,2.7-2.1,3c-0.2,0-0.3,0-0.5,0c-1.3,0-2.5,0.3-3.6,0.9
	c-4.2,2.2-5.9,7.3-3.7,11.5c0,0,0,0,0,0.1c2.2,4.1,7.4,5.6,11.5,3.4c0.1,0,0.1-0.1,0.2-0.1c1.2-0.7,2.3-1.8,3-3
	c0.7-1.2,2.3-1.7,3.5-1c0.1,0.1,0.3,0.2,0.4,0.3c4.7,4,10.6,6.2,16.8,6.2c6.2,0,12.1-2.2,16.8-6.2c1.1-0.9,2.7-0.8,3.6,0.3
	c0.1,0.1,0.2,0.2,0.3,0.4c0.7,1.2,1.8,2.3,3,3c4,2.3,9.2,0.9,11.5-3.1c0-0.1,0.1-0.1,0.1-0.2C78.3,56.7,76.7,51.5,72.5,49.3
	C72.5,49.3,72.5,49.3,72.5,49.3z"/>
<line class="st2" x1="14.8" y1="40.7" x2="66.7" y2="40.7"/>
<path class="st3" d="M60.6,41.1c1.7,0,3.1,1.4,3.1,3.1c0,0.1,0,0.3,0,0.4C62,56,52.2,64.3,40.7,64.3c-11.5,0-21.3-8.4-23-19.7
	c-0.2-1.7,1-3.3,2.7-3.5c0.1,0,0.3,0,0.4,0H60.6z"/>
<path class="st4" d="M34.4,39.7c-0.5,0-0.9-0.3-1-0.8c-1.7-6.6-1.5-10,0.5-11.2c0.9-0.4,2-0.5,2.9-0.1c0.4,0.2,0.9,0.2,1.4,0.1
	c0.3-0.2,1.5-1.3-0.4-9c-0.1-0.5,0.2-1.1,0.7-1.2c0,0,0,0,0,0c0.5-0.1,1.1,0.2,1.2,0.7c1.7,6.6,1.5,10-0.4,11.2
	c-0.9,0.4-2,0.5-2.9,0.1c-0.6-0.1-1.1-0.3-1.4-0.1s-1.5,1.3,0.5,9c0.1,0.5-0.2,1.1-0.7,1.2C34.5,39.7,34.4,39.7,34.4,39.7z"/>
<path class="st4" d="M43.9,39.7c-0.5,0-0.9-0.3-1-0.8c-1.3-5-1.1-7.7,0.5-8.6c0.7-0.4,1.6-0.4,2.4-0.1c0.3,0.1,0.7,0.2,0.8,0.1
	s1-0.7-0.5-6.4c-0.1-0.5,0.2-1.1,0.7-1.2c0,0,0,0,0,0c0.5-0.1,1.1,0.2,1.2,0.7c0,0,0,0,0,0c1.3,5,1.1,7.7-0.5,8.6
	c-0.7,0.4-1.6,0.4-2.4,0.1c-0.3-0.1-0.7-0.2-0.8-0.1c-0.1,0.1-1,0.7,0.5,6.4c0.1,0.5-0.2,1.1-0.7,1.2C44.1,39.7,44,39.7,43.9,39.7z"
	/>
<path class="st0" d="M21.2,43c-0.8,0.1-1.3,0.7-1.2,1.5c0.1,0.7,0.6,1.2,1.2,1.2c0.8-0.1,1.3-0.7,1.2-1.5
	C22.4,43.6,21.8,43.1,21.2,43z"/>
<path class="st0" d="M25.2,50.5c-0.6-0.8-1-1.6-1.3-2.5c-0.2-0.7-1-1.1-1.7-0.9s-1.1,1-0.9,1.7l0,0c0.4,1.1,0.9,2.2,1.6,3.2
	c0.4,0.6,1.3,0.8,1.9,0.4C25.4,52,25.6,51.1,25.2,50.5z"/>
</svg>
